<svg width="24" height="24" viewBox="0 0 24 24" fill="none" xmlns="http://www.w3.org/2000/svg">
<path d="M18.8547 4.05156C16.8906 2.08281 14.275 1 11.4953 1C5.75781 1 1.08906 5.66875 1.08906 11.4062C1.08906 13.2391 1.56719 15.0297 2.47656 16.6094L1 22L6.51719 20.5516C8.03594 21.3813 9.74687 21.8172 11.4906 21.8172H11.4953C17.2281 21.8172 22 17.1484 22 11.4109C22 8.63125 20.8188 6.02031 18.8547 4.05156ZM11.4953 20.0641C9.93906 20.0641 8.41562 19.6469 7.08906 18.8594L6.775 18.6719L3.50313 19.5297L4.375 16.3375L4.16875 16.0094C3.30156 14.6313 2.84688 13.0422 2.84688 11.4062C2.84688 6.63906 6.72812 2.75781 11.5 2.75781C13.8109 2.75781 15.9812 3.65781 17.6125 5.29375C19.2437 6.92969 20.2469 9.1 20.2422 11.4109C20.2422 16.1828 16.2625 20.0641 11.4953 20.0641ZM16.2391 13.5859C15.9813 13.4547 14.7016 12.8266 14.4625 12.7422C14.2234 12.6531 14.05 12.6109 13.8766 12.8734C13.7031 13.1359 13.2063 13.7172 13.0516 13.8953C12.9016 14.0688 12.7469 14.0922 12.4891 13.9609C10.9609 13.1969 9.95781 12.5969 8.95 10.8672C8.68281 10.4078 9.21719 10.4406 9.71406 9.44687C9.79844 9.27344 9.75625 9.12344 9.69062 8.99219C9.625 8.86094 9.10469 7.58125 8.88906 7.06094C8.67813 6.55469 8.4625 6.625 8.30313 6.61563C8.15313 6.60625 7.97969 6.60625 7.80625 6.60625C7.63281 6.60625 7.35156 6.67188 7.1125 6.92969C6.87344 7.19219 6.20312 7.82031 6.20312 9.1C6.20312 10.3797 7.13594 11.6172 7.2625 11.7906C7.39375 11.9641 9.09531 14.5891 11.7062 15.7188C13.3562 16.4312 14.0031 16.4922 14.8281 16.3703C15.3297 16.2953 16.3656 15.7422 16.5812 15.1328C16.7969 14.5234 16.7969 14.0031 16.7313 13.8953C16.6703 13.7781 16.4969 13.7125 16.2391 13.5859Z" fill="white"/>
</svg>
