<svg width="24" height="24" viewBox="0 0 24 24" fill="none" xmlns="http://www.w3.org/2000/svg">
<path d="M20 10C20 10.5523 20.4477 11 21 11C21.5523 11 22 10.5523 22 10H20ZM14 2C13.4477 2 13 2.44772 13 3C13 3.55228 13.4477 4 14 4V2ZM20.8474 3.76441L21.7384 3.31042V3.31042L20.8474 3.76441ZM20.2356 3.15259L20.6896 2.26158V2.26158L20.2356 3.15259ZM20.3071 5.10711C20.6976 4.71658 20.6976 4.08342 20.3071 3.69289C19.9166 3.30237 19.2834 3.30237 18.8929 3.69289L20.3071 5.10711ZM11.2929 11.2929C10.9024 11.6834 10.9024 12.3166 11.2929 12.7071C11.6834 13.0976 12.3166 13.0976 12.7071 12.7071L11.2929 11.2929ZM4.8614 20.6284L5.31539 19.7374H5.31539L4.8614 20.6284ZM3.37157 19.1386L2.48056 19.5926H2.48056L3.37157 19.1386ZM17.6284 19.1386L16.7374 18.6846L17.6284 19.1386ZM16.1386 20.6284L15.6846 19.7374L16.1386 20.6284ZM4.8614 6.37157L4.40741 5.48056H4.40741L4.8614 6.37157ZM3.37157 7.8614L2.48056 7.40741L3.37157 7.8614ZM10.5 7C11.0523 7 11.5 6.55228 11.5 6C11.5 5.44772 11.0523 5 10.5 5V7ZM19 13.5C19 12.9477 18.5523 12.5 18 12.5C17.4477 12.5 17 12.9477 17 13.5H19ZM22 10V5.24H20V10H22ZM18.76 2H14V4H18.76V2ZM22 5.24C22 4.86446 22.0008 4.52267 21.9776 4.23905C21.9535 3.94376 21.8985 3.62463 21.7384 3.31042L19.9564 4.2184C19.9489 4.20367 19.9702 4.2303 19.9842 4.40192C19.9992 4.5852 20 4.83146 20 5.24H22ZM18.76 4C19.1685 4 19.4148 4.00078 19.5981 4.01575C19.7697 4.02977 19.7963 4.0511 19.7816 4.0436L20.6896 2.26158C20.3754 2.10149 20.0562 2.04652 19.7609 2.02239C19.4773 1.99922 19.1355 2 18.76 2V4ZM21.7384 3.31042C21.5083 2.85884 21.1412 2.49168 20.6896 2.26158L19.7816 4.0436C19.8569 4.08194 19.9181 4.14314 19.9564 4.2184L21.7384 3.31042ZM18.8929 3.69289L11.2929 11.2929L12.7071 12.7071L20.3071 5.10711L18.8929 3.69289ZM12.5455 20H8.45455V22H12.5455V20ZM4 15.5455V11.4545H2V15.5455H4ZM8.45455 20C7.48341 20 6.8152 19.9992 6.29689 19.9569C5.79026 19.9155 5.51554 19.8394 5.31539 19.7374L4.40741 21.5194C4.9365 21.789 5.50371 21.8987 6.13403 21.9502C6.75267 22.0008 7.51641 22 8.45455 22V20ZM2 15.5455C2 16.4836 1.99922 17.2473 2.04977 17.866C2.10127 18.4963 2.21098 19.0635 2.48056 19.5926L4.26258 18.6846C4.16059 18.4845 4.08452 18.2097 4.04313 17.7031C4.00078 17.1848 4 16.5166 4 15.5455H2ZM5.31539 19.7374C4.86209 19.5065 4.49354 19.1379 4.26258 18.6846L2.48056 19.5926C2.90328 20.4222 3.57778 21.0967 4.40741 21.5194L5.31539 19.7374ZM17 15.5455C17 16.5166 16.9992 17.1848 16.9569 17.7031C16.9155 18.2097 16.8394 18.4845 16.7374 18.6846L18.5194 19.5926C18.789 19.0635 18.8987 18.4963 18.9502 17.866C19.0008 17.2473 19 16.4836 19 15.5455H17ZM12.5455 22C13.4836 22 14.2473 22.0008 14.866 21.9502C15.4963 21.8987 16.0635 21.789 16.5926 21.5194L15.6846 19.7374C15.4845 19.8394 15.2097 19.9155 14.7031 19.9569C14.1848 19.9992 13.5166 20 12.5455 20V22ZM16.7374 18.6846C16.5065 19.1379 16.1379 19.5065 15.6846 19.7374L16.5926 21.5194C17.4222 21.0967 18.0967 20.4222 18.5194 19.5926L16.7374 18.6846ZM8.45455 5C7.51641 5 6.75267 4.99922 6.13403 5.04977C5.50372 5.10127 4.9365 5.21098 4.40741 5.48056L5.31539 7.26258C5.51554 7.16059 5.79026 7.08452 6.29689 7.04313C6.8152 7.00078 7.48341 7 8.45455 7V5ZM4 11.4545C4 10.4834 4.00078 9.8152 4.04313 9.29689C4.08452 8.79026 4.16059 8.51554 4.26258 8.31539L2.48056 7.40741C2.21098 7.9365 2.10127 8.50372 2.04977 9.13403C1.99922 9.75267 2 10.5164 2 11.4545H4ZM4.40741 5.48056C3.57778 5.90328 2.90328 6.57778 2.48056 7.40741L4.26258 8.31539C4.49354 7.86209 4.86209 7.49354 5.31539 7.26258L4.40741 5.48056ZM8.45455 7H10.5V5H8.45455V7ZM17 13.5V15.5455H19V13.5H17Z" fill="white"/>
</svg>
