<svg width="24" height="24" viewBox="0 0 24 24" fill="none" xmlns="http://www.w3.org/2000/svg">
<path d="M16.589 6.4831H17.5165M16.589 7.41065H17.5165M19.5265 2H12.5123C11.8563 2 11.2271 2.2606 10.7633 2.72446L2.72446 10.7633C1.75851 11.7292 1.75851 13.2953 2.72446 14.2613L9.73871 21.2755C10.7047 22.2415 12.2708 22.2415 13.2367 21.2755L21.2755 13.2367C21.7394 12.7729 22 12.1437 22 11.4877V4.47348C22 3.10741 20.8926 2 19.5265 2ZM18.2898 6.94695C18.2898 7.62998 17.7361 8.18369 17.053 8.18369C16.37 8.18369 15.8163 7.62998 15.8163 6.94695C15.8163 6.26392 16.37 5.71021 17.053 5.71021C17.7361 5.71021 18.2898 6.26392 18.2898 6.94695Z" stroke="white" stroke-width="2" stroke-linecap="round"/>
</svg>
