<svg width="56" height="32" viewBox="0 0 56 32" fill="none" xmlns="http://www.w3.org/2000/svg">
<rect width="32" height="32" rx="16" fill="#302F37"/>
<path d="M9.58395 21.7546H10.3436C10.8207 21.7546 11.1911 21.3842 11.1911 20.9071V19.8838C12.5722 19.9654 14.4556 20.0156 16 20.0156C17.5381 20.0156 19.4214 19.9654 20.8026 19.8838V20.9071C20.8026 21.3842 21.173 21.7546 21.6564 21.7546H22.4097C22.8931 21.7546 23.2635 21.3842 23.2635 20.9071V19.256C23.4707 19.0112 23.5837 18.6847 23.5837 18.2829V17.178C23.5837 16.0731 23.3891 15.4516 22.7927 14.6982L22.2339 13.9951C22.0016 12.8651 21.5873 11.6786 21.3676 11.214C21.016 10.4732 20.338 10.0338 19.4716 9.91448C19.0134 9.8517 17.6699 9.82031 16 9.82031C14.33 9.82031 12.9803 9.85798 12.5283 9.91448C11.6619 10.0212 10.9776 10.4732 10.6324 11.214C10.4126 11.6786 9.99829 12.8651 9.76601 13.9951L9.20728 14.6982C8.61087 15.4516 8.41626 16.0731 8.41626 17.178V18.2829C8.41626 18.6847 8.52926 19.0112 8.73643 19.256V20.9071C8.73643 21.3842 9.10683 21.7546 9.58395 21.7546ZM16 18.9986C13.8466 18.9986 11.1723 18.8982 10.1552 18.7789C9.61534 18.7161 9.41445 18.4399 9.41445 17.9628V17.1215C9.41445 16.274 9.57767 15.8722 10.0171 15.2884L10.6951 14.4032C10.8521 13.5619 11.2601 12.2561 11.5175 11.6974C11.731 11.2517 12.1328 10.9943 12.679 10.9252C13.1121 10.8687 14.3363 10.8185 16 10.8185C17.6636 10.8185 18.9066 10.875 19.3084 10.9252C19.8734 10.9943 20.2627 11.258 20.4761 11.7037C20.7461 12.2499 21.1416 13.5494 21.2985 14.4032L21.9765 15.2884C22.4223 15.8722 22.5792 16.274 22.5792 17.1215V17.9628C22.5792 18.4399 22.3783 18.7161 21.8447 18.7789C20.8277 18.8982 18.1533 18.9986 16 18.9986ZM11.5489 13.7754C11.4862 14.0328 11.5992 14.1521 11.8691 14.1395C12.792 14.083 13.9534 14.0265 16 14.0265C18.0466 14.0265 19.208 14.083 20.1245 14.1395C20.4008 14.1521 20.5075 14.0328 20.451 13.7754C20.3129 13.1727 20.0555 12.3817 19.8734 12.0678C19.6976 11.7539 19.4968 11.6221 19.1264 11.5718C18.6995 11.5153 17.6762 11.4714 16 11.4714C14.3238 11.4714 13.2942 11.5153 12.8736 11.5718C12.5032 11.6221 12.296 11.7539 12.1265 12.0678C11.9444 12.3817 11.687 13.1727 11.5489 13.7754ZM11.4548 18.1888C12.0574 18.1888 12.5095 17.7367 12.5095 17.1403C12.5095 16.5377 12.0574 16.0857 11.4548 16.0857C10.8584 16.0857 10.4064 16.5377 10.4064 17.1403C10.4064 17.7367 10.8584 18.1888 11.4548 18.1888ZM20.5389 18.1888C21.1416 18.1888 21.5936 17.7367 21.5936 17.1403C21.5936 16.5377 21.1416 16.0857 20.5389 16.0857C19.9425 16.0857 19.4905 16.5377 19.4905 17.1403C19.4905 17.7367 19.9425 18.1888 20.5389 18.1888ZM14.3049 17.9251H17.695C18.1407 17.9251 18.4546 17.6112 18.4546 17.1655C18.4546 16.7197 18.1407 16.4058 17.695 16.4058H14.3049C13.8529 16.4058 13.539 16.7197 13.539 17.1655C13.539 17.6112 13.8529 17.9251 14.3049 17.9251Z" fill="white"/>
<rect x="24.5" y="0.5" width="31" height="31" rx="15.5" stroke="#302F37"/>
<path d="M39.9748 10.7497C40.8098 10.7497 41.4878 10.0592 41.4878 9.25558C41.4878 8.41434 40.8098 7.73633 39.9748 7.73633C39.1399 7.73633 38.4807 8.41434 38.4807 9.25558C38.4807 10.0592 39.1399 10.7497 39.9748 10.7497ZM42.1156 22.7091C42.4734 22.7091 42.7936 22.4455 42.7936 22.006C42.7936 21.8428 42.7497 21.6921 42.6618 21.5163L41.3183 18.7917C41.199 18.5469 41.0609 18.3271 40.9354 18.1514L40.1129 16.9837L40.1632 16.8267C40.3892 16.1048 40.4771 15.6653 40.5273 14.9747L40.6654 13.0349C40.7345 12.0806 40.182 11.3022 39.1838 11.3022C38.4556 11.3022 37.9282 11.6977 37.2502 12.3569L36.2207 13.3802C35.8691 13.7254 35.7561 14.008 35.7247 14.4474L35.5929 16.042C35.5615 16.4752 35.8063 16.7577 36.1955 16.7828C36.5659 16.8079 36.8422 16.5882 36.8861 16.1236L37.0305 14.3783L37.6395 13.8384C37.7525 13.738 37.9157 13.7945 37.9031 13.964L37.7901 15.5335C37.7336 16.2931 38.0664 16.8456 38.443 17.3164L39.7865 19.0052C39.9183 19.1684 39.9372 19.2312 39.9999 19.3504L41.4313 22.2571C41.6008 22.5961 41.8519 22.7091 42.1156 22.7091ZM42.4107 15.2949H43.9299C44.3694 15.2949 44.6456 15.0375 44.6456 14.6483C44.6456 14.2591 44.3631 14.0017 43.9236 14.0017H42.3353L41.2304 12.8026L41.1111 14.529L41.582 14.9999C41.808 15.2259 42.0214 15.2949 42.4107 15.2949ZM36.026 22.7091C36.2458 22.7091 36.4404 22.6087 36.5785 22.4455L38.6 20.041C38.8071 19.7899 38.8323 19.7271 38.9201 19.4823C38.9704 19.3191 39.0143 19.1621 39.052 19.0114L37.8969 17.5675L37.5578 19.1433L35.6431 21.4159C35.4673 21.6168 35.348 21.7925 35.348 22.0437C35.348 22.4329 35.6431 22.7091 36.026 22.7091Z" fill="#302F37"/>
</svg>
